<?xml version="1.0" encoding="utf-8"?>
<!-- Generator: Adobe Illustrator 24.1.0, SVG Export Plug-In . SVG Version: 6.00 Build 0)  -->
<svg version="1.1" id="Layer_1" xmlns="http://www.w3.org/2000/svg" xmlns:xlink="http://www.w3.org/1999/xlink" x="0px" y="0px"
	 viewBox="0 0 600 600" style="enable-background:new 0 0 600 600;" xml:space="preserve">
<style type="text/css">
	.st0{fill:#F88379;}
</style>
<g>
	<path class="st0" d="M339.84,149.9c0.98-1.26,2.94-1.29,5.88-0.1c2.94,1.19,5.77,3.15,8.5,5.88c2.73,2.73,4.86,5.92,6.41,9.55
		c1.54,3.64,1.47,7.21-0.21,10.71c-7.14,7.84-14.46,16.66-21.94,26.46c-7.49,9.8-14.91,20.13-22.26,30.97
		c-7.35,10.85-14.52,22.02-21.52,33.49c-7,11.48-13.58,22.89-19.74,34.23c3.36,2.38,6.82,4.62,10.39,6.72
		c3.57,2.1,7.25,4.13,11.03,6.09c1.96,0.7,2.73,1.96,2.31,3.78c-0.42,1.82-1.47,3.71-3.15,5.67c-1.68,1.96-3.68,3.75-5.99,5.35
		c-2.31,1.61-4.38,2.62-6.19,3.04l-15.54-8.82l-3.57-1.89c-7.42,14.28-13.72,27.51-18.9,39.69c-5.18,12.18-8.96,22.54-11.34,31.08
		c-0.42,1.12-1.54,1.02-3.36-0.32s-3.78-3.18-5.88-5.56c-2.1-2.38-3.96-4.87-5.56-7.45c-1.61-2.59-2.35-4.51-2.21-5.77
		c1.82-7.98,4.97-17.5,9.45-28.56c4.48-11.06,9.87-22.96,16.17-35.7c-4.62-2.52-9.21-4.86-13.75-7.03
		c-4.55-2.17-9.13-4.16-13.75-5.98c-11.06,12.74-22.65,24.92-34.76,36.54c-12.11,11.62-24.15,21.84-36.12,30.66
		c-11.97,8.82-23.63,15.86-34.96,21.11c-11.34,5.25-21.7,7.87-31.08,7.87c-18.06,0-30.94-3.71-38.64-11.13
		c-7.7-7.42-10.15-19.53-7.35-36.33c1.96-12.6,6.79-24.11,14.49-34.55c7.7-10.43,17.04-19.49,28.03-27.19
		c10.99-7.7,23.03-13.86,36.12-18.48c13.09-4.62,26-7.28,38.74-7.98c2.1-0.14,4.27-0.24,6.51-0.32c2.24-0.07,4.34-0.1,6.3-0.1
		c9.24,0,17.71,0.63,25.41,1.89c7.7,1.26,14.91,3.08,21.63,5.46c7.28-8.96,14-17.78,20.16-26.46c6.16-8.68,11.65-16.87,16.48-24.57
		c4.83-7.7,8.82-14.7,11.97-21c3.15-6.3,5.28-11.55,6.4-15.75c0.84-5.46,0.11-9.62-2.2-12.49c-2.31-2.87-5.91-4.23-10.81-4.09
		c-9.52,0-18.8,2.38-27.82,7.14c-9.03,4.76-17.5,10.96-25.41,18.59c-7.91,7.63-15.05,16.24-21.42,25.83
		c-6.37,9.59-11.66,19.29-15.86,29.08v0.21c-0.56,1.12-1.72,2.24-3.46,3.36c-1.75,1.12-3.75,2.1-5.99,2.94
		c-2.24,0.84-4.55,1.54-6.93,2.1c-2.38,0.56-4.51,0.91-6.4,1.05c-1.89,0.14-3.36,0-4.41-0.42c-1.05-0.42-1.3-1.26-0.74-2.52
		l-0.42,0.21l1.26-3.78c0.84-2.52,1.61-4.62,2.31-6.3c0.7-1.68,1.43-3.36,2.2-5.04c0.77-1.68,1.71-3.5,2.84-5.46
		c1.12-1.96,2.59-4.41,4.41-7.35c5.74-9.52,12.77-18.97,21.1-28.35c8.33-9.38,17.29-17.78,26.88-25.2
		c9.59-7.42,19.56-13.51,29.92-18.27c10.36-4.76,20.44-7.28,30.24-7.56c5.74-0.14,10.92,0.84,15.54,2.94
		c4.62,2.1,8.43,5.01,11.45,8.72c3.01,3.71,5.14,8.08,6.4,13.12c1.26,5.04,1.47,10.5,0.63,16.38c-1.54,5.74-3.92,12.21-7.14,19.42
		c-3.22,7.21-7.21,14.84-11.97,22.89c-4.76,8.05-10.12,16.42-16.06,25.09c-5.95,8.68-12.36,17.43-19.22,26.25
		c3.64,1.96,7.14,4.03,10.5,6.19c3.36,2.17,6.72,4.45,10.08,6.82c6.72-12.74,13.89-25.62,21.52-38.64
		c7.63-13.02,15.22-25.51,22.78-37.48c7.56-11.97,14.91-23.17,22.05-33.6c7.14-10.43,13.65-19.35,19.53-26.77V149.9z M71.26,366.61
		c8.68,0,17.92-2.14,27.72-6.4c9.8-4.27,19.74-10.01,29.82-17.22c10.08-7.21,20.16-15.57,30.24-25.1
		c10.08-9.52,19.81-19.53,29.19-30.03c-9.52-1.68-19.88-2.52-31.08-2.52c-2.38,0-4.69,0.04-6.93,0.11
		c-2.24,0.07-4.55,0.18-6.93,0.31c-10.36,0.84-20.97,3.12-31.81,6.82c-10.85,3.71-20.82,8.26-29.92,13.65
		c-9.1,5.39-16.77,11.34-22.99,17.85c-6.23,6.51-9.84,12.99-10.81,19.42c-0.14,4.06,0.45,7.56,1.78,10.5
		c1.33,2.94,3.11,5.35,5.35,7.25c2.24,1.89,4.79,3.26,7.67,4.09C65.42,366.19,68.33,366.61,71.26,366.61z"/>
	<path class="st0" d="M413.96,281.57c-2.8,3.5-5.5,5.53-8.09,6.09c-2.59,0.56-4.97,0.18-7.14-1.16c-2.17-1.33-3.99-3.39-5.46-6.19
		c-1.47-2.8-2.52-5.81-3.15-9.03c-0.63-3.22-0.74-6.4-0.32-9.55c0.42-3.15,1.54-5.84,3.36-8.09c5.46-9.94,12.04-19.49,19.74-28.66
		c7.7-9.17,16.03-17.81,24.99-25.93c8.96-8.12,18.27-15.68,27.93-22.68c9.66-7,19.18-13.23,28.56-18.69
		c9.38-5.46,18.3-10.11,26.77-13.96c8.47-3.85,15.99-6.75,22.57-8.71c2.94-0.98,5.74-1.47,8.4-1.47c4.2,0,7.66,0.94,10.39,2.83
		c2.73,1.89,4.73,4.38,5.99,7.46c1.26,3.08,1.82,6.54,1.68,10.39c-0.14,3.85-0.84,7.74-2.1,11.65l0.21-0.21
		c-3.5,11.06-8.09,23.28-13.75,36.64c-5.67,13.37-12.18,27.33-19.53,41.89c-7.35,14.56-15.47,29.43-24.36,44.62
		c-8.89,15.19-18.27,30.1-28.14,44.73c-9.87,14.63-20.16,28.66-30.87,42.1c-10.71,13.44-21.56,25.76-32.55,36.96
		c-10.99,11.2-22.02,20.93-33.07,29.19c-11.06,8.26-21.91,14.49-32.55,18.69c-3.08,1.12-6.9,2.06-11.45,2.83
		c-4.55,0.77-8.85,1.29-12.91,1.58c-11.06,0.7-20.23-0.77-27.51-4.41c-7.28-3.64-12.91-8.58-16.9-14.8
		c-3.99-6.23-6.51-13.37-7.56-21.42c-1.05-8.05-0.95-16.2,0.31-24.46c2.1-12.32,6.16-24.57,12.18-36.75
		c6.02-12.18,13.54-23.13,22.57-32.86s19.35-17.6,30.97-23.63c11.62-6.02,24.15-9.03,37.59-9.03c4.34,0,8.61,0.56,12.81,1.68
		c4.2,1.12,7.84,2.87,10.92,5.25c3.08,2.38,5.42,5.39,7.03,9.03c1.61,3.64,2.13,7.91,1.58,12.81c-0.42,1.54-1.54,3.78-3.36,6.72
		c-1.82,2.94-3.78,5.63-5.88,8.08c-2.1,2.45-4.09,4.24-5.98,5.35c-1.89,1.12-3.12,0.56-3.68-1.68c0.28-3.22-0.04-6.05-0.95-8.51
		c-0.91-2.45-2.24-4.48-3.99-6.09c-1.75-1.61-3.85-2.84-6.3-3.68c-2.45-0.84-5.01-1.26-7.66-1.26c-6.44,0-12.81,0.98-19.11,2.94
		c-6.3,1.96-12.32,4.69-18.06,8.19c-5.74,3.5-11.1,7.63-16.06,12.39c-4.97,4.76-9.42,9.91-13.34,15.43
		c-3.92,5.53-7.24,11.27-9.97,17.22c-2.73,5.95-4.59,11.86-5.56,17.74c-0.84,5.46-0.77,10.92,0.21,16.38
		c0.98,5.46,3.05,10.39,6.19,14.8c3.15,4.41,7.42,7.98,12.81,10.71c5.39,2.73,12,4.09,19.84,4.09c8.82-1.12,18.09-4.83,27.82-11.13
		c9.73-6.3,19.56-14.46,29.5-24.46c9.94-10.01,19.91-21.56,29.92-34.65c10.01-13.09,19.77-26.95,29.29-41.58
		c9.52-14.63,18.72-29.68,27.61-45.15c8.89-15.47,17.15-30.62,24.78-45.46c7.63-14.84,14.52-29.01,20.68-42.52
		c6.16-13.51,11.34-25.58,15.54-36.22c0.14-0.28,0.28-0.59,0.42-0.94c0.14-0.35,0.28-0.66,0.42-0.95c0.14-0.42,0.28-0.77,0.42-1.05
		c-5.46,2.52-12.14,6.37-20.05,11.55c-7.91,5.18-16.28,11.2-25.09,18.06c-8.82,6.86-17.71,14.31-26.67,22.36
		c-8.96,8.05-17.15,16.14-24.57,24.25c-7.42,8.12-13.68,16.03-18.79,23.73c-5.11,7.7-8.29,14.63-9.55,20.79V281.57z"/>
</g>
</svg>
